:SAMPLES-PER-SECOND 30
:FULLY-SPECIFIED
:DEGREES
534
root  86.3769 39.3569 -5.50876 -25.9405 -83.4046 28.4003
RightUpLeg  -2.60821 -10.1861 -5.56974
RightLeg  5.9118 -8.19758 1.33997
RightFoot  -5.08988 0.0356644 -1.27742
RightToes  -4.65661e-009 0 -3.6325e-017
Spine  2.61079 0.354715 5.49536
Spine1  6.01367 1.1387 -3.12118
HEad  -5.64344 -10.2014 -7.73345
LeftShoulder1  -0.786088 5.56197 -32.0403
LeftArm  -1.89796 14.3265 -41.3903
LeftForeArm  23.1797 -27.8563 -4.75268
LeftHand  0.0264398 8.28353 2.86025
RightShoulder  -1.11666 -6.47922 30.9964
RightArm  7.06265 -20.952 42.2312
RightForeArm  27.0822 4.96093 3.62404
RightHand  0.0558812 -2.26448 2.99195
LeftUpLeg  -0.505507 5.06594 1.78925
LeftLeg  -1.48682 -0.843144 1.02536
LeftFoot  0.452765 0.152584 -1.50402
LeftToes  9.86798e-010 -1.28139e-010 1.4132e-011
535
root  86.2956 39.3533 -5.60823 -27.7559 -83.5398 30.1836
RightUpLeg  -2.69402 -10.269 -5.57143
RightLeg  6.34437 -7.8993 1.34604
RightFoot  -5.28491 0.0337251 -1.26201
RightToes  -4.65661e-009 0 -3.6325e-017
Spine  3.60059 0.00973889 5.18586
Spine1  4.69061 0.719309 -2.79104
HEad  -5.28339 -9.5277 -7.39857
LeftShoulder1  -0.843358 5.70301 -32.1834
LeftArm  -1.41838 15.0202 -40.7211
LeftForeArm  23.7522 -27.7681 -4.70201
LeftHand  -0.0069704 7.14698 1.43258
RightShoulder  -1.17251 -6.59962 31.3448
RightArm  7.12581 -25.7766 42.0484
RightForeArm  27.9943 6.16845 3.43317
RightHand  0.0865348 -3.37338 5.98057
LeftUpLeg  -0.212294 5.11299 1.88236
LeftLeg  -1.71404 -0.636938 0.973102
LeftFoot  0.458821 0.177489 -1.74463
LeftToes  9.86798e-010 -1.28139e-010 1.4132e-011
536
root  86.1951 39.3505 -5.66556 -30.6676 -84.1124 33.1015
RightUpLeg  -2.68244 -10.287 -5.48936
RightLeg  6.42603 -7.24094 1.47139
RightFoot  -5.37846 0.0475145 -1.48044
RightToes  -4.65661e-009 0 -3.6325e-017
Spine  3.80212 -0.207317 5.50345
Spine1  4.11998 0.59604 -3.30025
HEad  -4.94879 -8.6847 -6.69462
LeftShoulder1  -0.876721 5.77946 -32.3612
LeftArm  -0.967987 15.5676 -40.0928
LeftForeArm  24.5364 -27.3043 -4.55624
LeftHand  -0.0291597 5.15445 -0.131948
RightShoulder  -1.23111 -6.72514 31.6916
RightArm  7.74896 -28.7886 41.6027
RightForeArm  28.2836 6.69327 3.54953
RightHand  0.123424 -2.57687 5.74426
LeftUpLeg  0.0613548 5.23591 2.04153
LeftLeg  -1.74761 -0.10169 0.947119
LeftFoot  0.342401 0.173829 -1.72015
LeftToes  9.86798e-010 -1.28139e-010 1.4132e-011
537
root  86.0902 39.3514 -5.70241 -35.3992 -84.806 37.8862
RightUpLeg  -2.61004 -10.343 -5.4543
RightLeg  6.27894 -6.40005 1.66467
RightFoot  -5.4088 0.0651356 -1.75022
RightToes  -4.65661e-009 0 -3.6325e-017
Spine  3.83624 -0.31889 5.63298
Spine1  3.71766 0.541083 -3.61586
HEad  -4.60302 -8.14817 -6.40325
LeftShoulder1  -0.896593 5.84168 -32.1823
LeftArm  -0.420927 16.1073 -39.9264
LeftForeArm  23.4878 -26.3577 -4.40347
LeftHand  -0.0306994 6.70055 0.608913
RightShoulder  -1.26132 -6.76662 32.1302
RightArm  8.72335 -29.9668 40.6704
RightForeArm  28.4508 7.24822 3.79369
RightHand  0.0714217 -3.31416 5.17719
LeftUpLeg  0.255554 5.44138 2.21475
LeftLeg  -1.63466 0.550219 0.800178
LeftFoot  0.175411 0.180081 -1.82148
LeftToes  9.86798e-010 -1.28139e-010 1.4132e-011
538
root  85.9957 39.3386 -5.71689 -44.0878 -85.7147 46.3322
RightUpLeg  -2.51093 -10.1443 -5.28912
RightLeg  6.55109 -5.39862 1.51805
RightFoot  -5.49511 0.0571127 -1.61532
RightToes  -4.65661e-009 0 -3.6325e-017
Spine  3.77219 -0.151977 5.08056
Spine1  3.87604 0.539333 -2.77002
HEad  -4.76296 -7.30976 -6.58591
LeftShoulder1  -0.867976 5.76056 -32.2955
LeftArm  0.118456 16.2821 -39.971
LeftForeArm  23.113 -24.921 -4.1127
LeftHand  -0.0364132 6.60239 -0.173747
RightShoulder  -1.20469 -6.67212 31.4984
RightArm  8.81431 -29.4554 40.4251
RightForeArm  27.9275 7.24188 3.83262
RightHand  0.132912 -1.83462 4.70255
LeftUpLeg  0.893935 5.65936 2.43244
LeftLeg  -1.66607 1.54619 0.68958
LeftFoot  -0.264559 0.195529 -2.05825
LeftToes  9.86798e-010 -1.28139e-010 1.4132e-011
539
root  85.9142 39.342 -5.70128 -57.8499 -86.5084 59.8426
RightUpLeg  -2.2299 -10.012 -5.23147
RightLeg  6.40483 -4.32025 1.49539
RightFoot  -5.38443 0.0527393 -1.53369
RightToes  -4.65661e-009 0 -3.6325e-017
Spine  3.13303 -0.0586375 4.79489
Spine1  4.67619 0.561705 -2.44672
HEad  -4.92304 -6.7058 -6.65673
LeftShoulder1  -0.85293 5.71391 -32.4171
LeftArm  -0.28592 16.188 -40.2068
LeftForeArm  23.6794 -23.0086 -3.76611
LeftHand  -0.0123672 4.42286 -1.23782
RightShoulder  -1.16743 -6.62359 30.896
RightArm  9.19949 -27.0992 40.3069
RightForeArm  27.5253 7.28064 4.08175
RightHand  0.0742657 -2.18177 3.20132
LeftUpLeg  1.43652 5.69451 2.46455
LeftLeg  -1.49028 2.68269 0.756448
LeftFoot  -0.522306 0.194879 -2.04185
LeftToes  9.86798e-010 -1.28139e-010 1.4132e-011
540
root  85.8157 39.3471 -5.65945 -76.6957 -87.0172 78.5578
RightUpLeg  -1.85304 -9.88839 -5.15801
RightLeg  5.88489 -3.33562 1.50925
RightFoot  -5.19358 0.0654578 -1.71673
RightToes  -4.65661e-009 0 -3.6325e-017
Spine  1.92724 -0.0962205 5.0313
Spine1  5.79625 0.605436 -2.8987
HEad  -5.00919 -5.37435 -6.6447
LeftShoulder1  -0.760262 5.49915 -31.9494
LeftArm  -1.4168 16.54 -40.5376
LeftForeArm  24.1084 -21.3787 -3.86066
LeftHand  0.0192369 3.47711 -2.19603
RightShoulder  -1.11177 -6.48427 30.7671
RightArm  9.13557 -23.4 40.002
RightForeArm  26.4307 7.06243 4.15908
RightHand  0.102008 -1.01022 2.85655
LeftUpLeg  1.9079 5.69794 2.46592
LeftLeg  -1.43949 3.80744 0.850082
LeftFoot  -0.734427 0.204791 -2.19155
LeftToes  9.86798e-010 -1.28139e-010 1.4132e-011
